# Blender 3.6.0
# www.blender.org
o Cube
v -1.149347 1.602116 2.181444
v -1.143372 1.837490 1.305497
v -1.359511 -0.207981 2.110830
v -1.264259 -0.231784 1.251402
v -3.130013 1.655958 2.163934
v -3.148864 1.889816 1.288829
v -3.151478 -0.307486 2.169966
v -3.158602 -0.266963 1.291865
v -1.730466 0.176564 2.515602
v -2.697655 0.115283 2.546221
v -1.607678 1.205600 2.546307
v -2.694584 1.204443 2.546983
v -1.629838 -0.045821 4.969656
v -2.730050 -0.104446 5.138223
v -1.639733 0.983986 5.144695
v -2.741824 0.913800 5.346504
v -1.700448 -0.366609 8.361296
v -2.773840 -0.487499 8.427443
v -1.720097 0.603185 8.708894
v -2.798285 0.452789 8.859879
v 3.488198 1.467102 1.943256
v 3.501204 1.897508 1.244487
v 3.554739 -0.418547 1.998592
v 3.499414 -0.340899 1.288933
v 1.499414 1.659101 2.169183
v 1.499414 1.889878 1.288933
v 1.505011 -0.429857 2.169183
v 1.499414 -0.340899 1.288933
v 3.044970 0.114673 2.541660
v 1.924888 0.028679 2.666812
v 3.089730 1.210177 2.509492
v 1.954130 1.204689 2.545547
v 3.044755 0.113759 4.510811
v 1.954072 0.113759 4.510811
v 3.044755 1.204443 4.510811
v 1.954072 1.204443 4.510811
v 3.026286 0.113759 6.687016
v 1.972542 0.113759 6.248417
v 3.026286 1.204443 6.248916
v 1.972542 1.204443 5.272432
v -0.114800 3.345505 1.634914
v -0.114800 3.345505 0.524151
v -0.178723 0.781155 1.640437
v -0.126215 0.962589 0.549366
v -2.392118 3.345505 1.634914
v -2.392118 3.345505 0.517941
v -2.392118 1.068187 1.634914
v -2.392118 1.068187 0.517941
v -2.497767 1.057833 1.388410
v -2.497767 1.057833 0.271437
v -2.527139 -0.990478 1.397297
v -2.506699 -1.148937 0.274235
v -4.602082 1.029557 1.341186
v -4.774656 1.057763 0.271319
v -4.803082 -0.884223 1.442790
v -4.783728 -1.115992 0.288223
v -0.258487 0.727588 1.586944
v -0.202910 0.923644 0.494781
v -0.232579 -0.743821 1.496993
v -0.181418 -1.100254 0.444038
v -2.470980 1.017619 1.581425
v -2.470980 1.017619 0.464452
v -2.501678 -1.036871 1.589244
v -2.484480 -1.153060 0.468681
v 5.212092 5.030649 1.089114
v 5.212092 5.030649 -0.027860
v 5.167262 -4.666026 1.171535
v 5.204186 -4.783298 -0.013324
v -5.093464 5.030649 1.089114
v -5.093464 5.030649 -0.027860
v -5.093464 -4.808409 1.089114
v -5.093464 -4.808409 -0.027860
v -2.070538 3.092212 1.931000
v -2.070538 3.092212 0.814026
v -2.086082 0.822607 1.927145
v -2.070538 0.814894 0.814026
v -4.044728 3.038283 1.827739
v -4.254283 3.075565 0.782150
v -4.072736 0.769927 1.855901
v -4.262929 0.801013 0.790844
v 1.330232 0.271801 1.325259
v 1.334628 0.270788 0.260528
v 1.328626 -2.127889 1.387222
v 1.332723 -2.046376 0.231301
v -1.043910 0.223396 1.305578
v -0.942646 0.270254 0.212559
v -0.714634 -1.561872 1.273654
v -0.858421 -1.935925 0.204215
v -0.038500 -2.189088 1.139912
v -0.141098 -2.395723 0.048458
v -0.209798 -4.409965 1.138021
v -0.170007 -4.598228 0.040738
v -2.424695 -2.338914 1.167578
v -2.429557 -2.404976 0.049530
v -2.469955 -4.504482 1.166504
v -2.442028 -4.627405 0.049530
v 4.579275 -2.389147 1.284381
v 4.561219 -2.257177 0.088647
v 4.480861 -4.245953 1.303369
v 4.530839 -4.404687 0.094509
v 2.262114 -2.485183 1.306531
v 2.271601 -2.286823 0.095485
v 2.219793 -4.311152 1.293875
v 2.258537 -4.424814 0.091578
v 4.061219 1.359164 1.412472
v 4.059299 1.350982 0.343161
v 4.062341 -0.948562 1.473399
v 4.060021 -0.931609 0.346308
v 1.381785 1.343877 1.461903
v 1.381528 1.350982 0.346766
v 1.376469 -0.910764 1.461252
v 1.381526 -0.926365 0.343174
v 4.450333 4.155927 1.558617
v 4.450333 4.155927 0.170468
v 4.347565 0.801184 1.932115
v 4.437838 0.555874 0.218797
v 0.762948 4.177781 1.528204
v 0.364438 4.337668 0.029511
v 0.757354 0.420816 1.521788
v 0.588212 0.390680 0.060355
vn -0.6549 0.0095 0.7556
vn 0.0192 -0.9994 0.0298
vn -0.9997 0.0045 0.0228
vn -0.0213 -0.0013 -0.9998
vn 0.9983 -0.0581 -0.0088
vn 0.0231 0.9660 0.2576
vn 0.9918 -0.1168 -0.0513
vn 0.6826 -0.1030 0.7235
vn 0.0116 0.6698 0.7425
vn 0.0623 -0.7000 0.7114
vn -0.9997 -0.0175 -0.0184
vn -0.9998 -0.0079 -0.0177
vn 0.0402 -0.9957 -0.0839
vn -0.0010 0.9964 0.0850
vn 0.1758 -0.3290 0.9278
vn 0.1043 -0.9880 -0.1137
vn -0.0440 0.9935 0.1052
vn 0.9998 0.0060 0.0214
vn -0.6386 -0.0017 0.7695
vn -0.0000 -0.9949 -0.1005
vn -1.0000 -0.0000 -0.0000
vn -0.0000 -0.0000 -1.0000
vn 0.9998 -0.0004 0.0183
vn 0.0084 0.8513 0.5245
vn 1.0000 -0.0000 0.0001
vn 0.7504 0.0458 0.6594
vn 0.0089 0.9082 0.4184
vn 0.1283 -0.7809 0.6113
vn -0.9997 -0.0000 0.0242
vn -0.9997 0.0249 -0.0000
vn -0.0000 -0.9989 0.0461
vn -0.0047 1.0000 0.0028
vn -0.3603 0.3477 0.8656
vn -0.0000 -1.0000 -0.0000
vn -0.0000 1.0000 -0.0000
vn 1.0000 0.0034 0.0085
vn 1.0000 -0.0048 -0.0000
vn -0.0436 -0.9852 -0.1659
vn -0.0022 0.0022 1.0000
vn 0.0134 -0.0106 -0.9999
vn 0.9999 -0.0143 -0.0000
vn -0.0135 -0.9901 0.1395
vn -0.9998 0.0040 -0.0176
vn -0.0000 0.9997 0.0264
vn 0.0223 0.0507 0.9985
vn -0.0062 -0.0012 -1.0000
vn 0.9985 0.0143 0.0534
vn 0.0251 -0.9465 0.3216
vn -0.9999 0.0062 -0.0160
vn 0.1300 0.9915 -0.0000
vn 0.0483 -0.0601 0.9970
vn -0.0113 0.0249 -0.9996
vn 1.0000 -0.0046 -0.0000
vn 0.0023 -0.9951 0.0986
vn -0.0080 -0.0000 1.0000
vn 0.0014 -0.0000 -1.0000
vn 1.0000 -0.0068 -0.0000
vn 0.0262 -0.9996 0.0073
vn -0.9843 0.0143 0.1762
vn -0.0082 0.9993 0.0373
vn -0.0362 0.0129 0.9993
vn 0.0106 -0.0039 -0.9999
vn 1.0000 -0.0009 0.0041
vn -0.2628 -0.9624 -0.0688
vn -0.9885 -0.0383 0.1463
vn -0.0207 0.9989 0.0409
vn -0.0483 0.0258 0.9985
vn 0.0130 0.0126 -0.9998
vn 0.9939 -0.0766 -0.0789
vn 0.0133 -0.9854 0.1696
vn -0.9997 0.0056 -0.0256
vn -0.0041 0.9983 -0.0590
vn 0.0126 -0.0008 0.9999
vn -0.0039 -0.0000 -1.0000
vn 0.9984 -0.0531 -0.0209
vn 0.0086 -0.9914 0.1305
vn -0.9991 0.0234 -0.0344
vn -0.0393 0.9861 0.1612
vn -0.0040 -0.0068 1.0000
vn 0.0013 0.0018 -1.0000
vn 1.0000 0.0003 -0.0018
vn -0.0140 -0.9998 -0.0150
vn -1.0000 -0.0000 -0.0045
vn -0.0056 1.0000 0.0064
vn -0.0041 0.0264 0.9996
vn 0.0012 -0.0014 -1.0000
vn 0.9995 -0.0306 -0.0000
vn 0.0877 -0.9854 0.1457
vn -0.9934 0.0013 0.1149
vn 0.0410 0.9946 0.0952
vn -0.1134 -0.0015 0.9935
vn 0.0417 -0.0136 -0.9990
vn -0.6389 0.0013 0.7692
vn 0.0539 -0.9975 -0.0465
vn -0.9999 0.0110 0.0086
vn 0.0090 0.0256 -0.9996
vn 0.9865 -0.1189 0.1126
vn 0.0239 0.9654 0.2596
vn 0.9999 0.0074 0.0130
vn 0.6742 -0.1068 0.7308
vn -0.0002 0.6468 0.7627
vn 0.0666 -0.6922 0.7186
vn -0.9999 -0.0086 -0.0143
vn -0.9999 0.0028 -0.0123
vn 0.0600 -0.9939 -0.0925
vn -0.0445 0.9937 0.1024
vn 0.1023 -0.4134 0.9048
vn 0.0387 -0.9949 -0.0933
vn -0.1195 0.9846 0.1273
vn 0.9996 0.0117 0.0238
vn -0.7975 0.0815 0.5978
vn -0.0035 -0.9941 -0.1085
vn -1.0000 -0.0027 0.0061
vn -0.0221 -0.0198 -0.9996
vn 0.9967 0.0330 -0.0741
vn 0.1213 0.9602 0.2517
vn 0.9989 -0.0402 0.0223
vn 0.8213 -0.0168 0.5703
vn 0.1467 0.7139 0.6847
vn 0.0645 -0.6811 0.7293
vn -0.9999 0.0095 0.0106
vn -0.9999 -0.0000 0.0158
vn 0.0765 -0.9971 -0.0005
vn -0.0000 1.0000 0.0001
vn -0.5682 0.5487 0.6132
vn 0.9999 -0.0000 0.0106
vn 0.9987 -0.0248 0.0439
vn -0.1286 -0.9917 -0.0000
vn -0.0000 -0.0000 1.0000
vn 0.0027 -0.0000 -1.0000
vn 0.9998 -0.0040 0.0188
vn -0.0418 -0.9797 0.1960
vn -0.9806 0.1115 0.1611
vn -0.0134 0.9999 -0.0000
vn -0.0225 0.0047 0.9997
vn 0.0001 -0.0078 -1.0000
vn 0.9989 0.0095 0.0453
vn 0.1316 -0.9858 0.1042
vn -0.9999 0.0149 -0.0000
vn 0.0384 0.9832 0.1784
vn -0.0020 0.0038 1.0000
vn 0.0133 -0.0020 -0.9999
vn 0.9995 -0.0008 0.0312
vn 0.0139 -0.9999 -0.0000
vn -0.0000 0.0085 1.0000
vn -0.0000 -0.0015 -1.0000
vn 0.9999 -0.0000 0.0140
vn 0.0066 -0.9995 -0.0304
vn -0.9805 0.0045 0.1967
vn -0.0273 0.9996 -0.0000
vn -0.0522 -0.0013 0.9986
vn 0.0146 -0.0000 -0.9999
vn 1.0000 -0.0006 0.0035
vn -0.0516 -0.9405 0.3359
vn -0.9790 -0.1788 -0.0984
vn -0.0002 1.0000 -0.0010
vn -0.0079 -0.0193 0.9998
vn 0.0211 0.0046 -0.9998
vn 0.9992 -0.0132 0.0385
vn 0.0429 -0.9930 0.1103
vn -0.9998 0.0209 0.0031
vn -0.0637 0.9816 -0.1799
vn 0.0117 -0.0018 0.9999
vn -0.0005 0.0035 -1.0000
vn 0.9990 -0.0140 0.0431
vn 0.0283 -0.9951 0.0950
vn -1.0000 0.0061 -0.0068
vn -0.0125 0.9939 0.1099
vn 0.0092 0.0097 0.9999
vn -0.0030 -0.0027 -1.0000
vn 1.0000 0.0004 -0.0021
vn -0.0020 -0.9999 0.0139
vn -1.0000 0.0024 0.0002
vn -0.0000 1.0000 -0.0077
vn 0.0184 -0.0003 0.9998
vn -0.0013 0.0016 -1.0000
vn 0.9986 -0.0028 0.0530
vn 0.0422 -0.9990 0.0157
vn -0.9665 -0.0528 0.2513
vn 0.0059 1.0000 -0.0000
vn -0.0075 0.1109 0.9938
vn 0.0342 -0.0059 -0.9994
vt 0.625000 0.000000
vt 0.625000 0.250000
vt 0.625000 0.750000
vt 0.375000 1.000000
vt 0.375000 0.750000
vt 0.375000 0.000000
vt 0.375000 0.250000
vt 0.125000 0.500000
vt 0.125000 0.750000
vt 0.625000 0.500000
vt 0.375000 0.500000
vt 0.625000 1.000000
vt 0.875000 0.500000
vt 0.875000 0.750000
s 0
f 7/1/1 12/2/1 5/2/1
f 3/3/2 8/4/2 4/5/2
f 8/6/3 5/2/3 6/7/3
f 6/8/4 4/5/4 8/9/4
f 1/10/5 4/5/5 2/11/5
f 5/2/6 2/11/6 6/7/6
f 11/10/7 13/3/7 9/3/7
f 3/3/8 11/10/8 9/3/8
f 5/2/9 11/10/9 1/10/9
f 3/3/10 10/12/10 7/12/10
f 16/2/11 18/1/11 20/2/11
f 12/2/12 14/1/12 16/2/12
f 10/12/13 13/3/13 14/12/13
f 12/2/14 15/10/14 11/10/14
f 20/13/15 17/3/15 19/10/15
f 14/12/16 17/3/16 18/12/16
f 16/2/17 19/10/17 15/10/17
f 15/10/18 17/3/18 13/3/18
f 27/1/19 32/2/19 25/2/19
f 24/5/20 27/12/20 28/4/20
f 28/6/21 25/2/21 26/7/21
f 26/8/22 24/5/22 28/9/22
f 21/10/23 24/5/23 22/11/23
f 26/7/24 21/10/24 22/11/24
f 29/3/25 35/10/25 33/3/25
f 21/10/26 29/3/26 23/3/26
f 21/10/27 32/2/27 31/10/27
f 27/12/28 29/3/28 30/12/28
f 34/1/29 40/2/29 36/2/29
f 30/1/30 36/2/30 32/2/30
f 30/12/31 33/3/31 34/12/31
f 32/2/32 35/10/32 31/10/32
f 39/10/33 38/14/33 37/3/33
f 33/3/34 38/12/34 34/12/34
f 35/10/35 40/2/35 39/10/35
f 33/3/36 39/10/36 37/3/36
f 41/6/37 44/2/37 42/1/37
f 43/7/38 48/10/38 44/2/38
f 45/5/21 48/10/21 47/11/21
f 45/5/35 42/12/35 46/3/35
f 41/9/39 47/11/39 43/8/39
f 48/10/40 42/14/40 44/13/40
f 51/7/41 50/1/41 49/6/41
f 51/7/42 56/10/42 52/2/42
f 55/11/43 54/3/43 56/10/43
f 53/5/44 50/12/44 54/3/44
f 51/8/45 53/5/45 55/11/45
f 56/10/46 50/14/46 52/13/46
f 59/7/47 58/1/47 57/6/47
f 59/7/48 64/10/48 60/2/48
f 63/11/49 62/3/49 64/10/49
f 57/4/50 62/3/50 61/5/50
f 57/9/51 63/11/51 59/8/51
f 64/10/52 58/14/52 60/13/52
f 67/7/53 66/1/53 65/6/53
f 67/7/54 72/10/54 68/2/54
f 69/5/21 72/10/21 71/11/21
f 65/4/35 70/3/35 69/5/35
f 67/8/55 69/5/55 71/11/55
f 70/3/56 68/13/56 72/10/56
f 75/7/57 74/1/57 73/6/57
f 79/11/58 76/2/58 75/7/58
f 77/5/59 80/10/59 79/11/59
f 77/5/60 74/12/60 78/3/60
f 75/8/61 77/5/61 79/11/61
f 78/3/62 76/13/62 80/10/62
f 81/6/63 84/2/63 82/1/63
f 87/11/64 84/2/64 83/7/64
f 87/11/65 86/3/65 88/10/65
f 81/4/66 86/3/66 85/5/66
f 81/9/67 87/11/67 83/8/67
f 88/10/68 82/14/68 84/13/68
f 91/7/69 90/1/69 89/6/69
f 91/7/70 96/10/70 92/2/70
f 95/11/71 94/3/71 96/10/71
f 93/5/72 90/12/72 94/3/72
f 91/8/73 93/5/73 95/11/73
f 94/3/74 92/13/74 96/10/74
f 99/7/75 98/1/75 97/6/75
f 99/7/76 104/10/76 100/2/76
f 101/5/77 104/10/77 103/11/77
f 97/4/78 102/3/78 101/5/78
f 99/8/79 101/5/79 103/11/79
f 102/3/80 100/13/80 104/10/80
f 105/6/81 108/2/81 106/1/81
f 111/11/82 108/2/82 107/7/82
f 111/11/83 110/3/83 112/10/83
f 105/4/84 110/3/84 109/5/84
f 105/9/85 111/11/85 107/8/85
f 112/10/86 106/14/86 108/13/86
f 115/7/87 114/1/87 113/6/87
f 119/11/88 116/2/88 115/7/88
f 117/5/89 120/10/89 119/11/89
f 117/5/90 114/12/90 118/3/90
f 115/8/91 117/5/91 119/11/91
f 120/10/92 114/14/92 116/13/92
f 7/1/93 10/1/93 12/2/93
f 3/3/94 7/12/94 8/4/94
f 8/6/95 7/1/95 5/2/95
f 6/8/96 2/11/96 4/5/96
f 1/10/97 3/3/97 4/5/97
f 5/2/98 1/10/98 2/11/98
f 11/10/99 15/10/99 13/3/99
f 3/3/100 1/10/100 11/10/100
f 5/2/101 12/2/101 11/10/101
f 3/3/102 9/3/102 10/12/102
f 16/2/103 14/1/103 18/1/103
f 12/2/104 10/1/104 14/1/104
f 10/12/105 9/3/105 13/3/105
f 12/2/106 16/2/106 15/10/106
f 20/13/107 18/14/107 17/3/107
f 14/12/108 13/3/108 17/3/108
f 16/2/109 20/2/109 19/10/109
f 15/10/110 19/10/110 17/3/110
f 27/1/111 30/1/111 32/2/111
f 24/5/112 23/3/112 27/12/112
f 28/6/113 27/1/113 25/2/113
f 26/8/114 22/11/114 24/5/114
f 21/10/115 23/3/115 24/5/115
f 26/7/116 25/2/116 21/10/116
f 29/3/117 31/10/117 35/10/117
f 21/10/118 31/10/118 29/3/118
f 21/10/119 25/2/119 32/2/119
f 27/12/120 23/3/120 29/3/120
f 34/1/121 38/1/121 40/2/121
f 30/1/122 34/1/122 36/2/122
f 30/12/123 29/3/123 33/3/123
f 32/2/124 36/2/124 35/10/124
f 39/10/125 40/13/125 38/14/125
f 33/3/34 37/3/34 38/12/34
f 35/10/35 36/2/35 40/2/35
f 33/3/126 35/10/126 39/10/126
f 41/6/127 43/7/127 44/2/127
f 43/7/128 47/11/128 48/10/128
f 45/5/21 46/3/21 48/10/21
f 45/5/35 41/4/35 42/12/35
f 41/9/129 45/5/129 47/11/129
f 48/10/130 46/3/130 42/14/130
f 51/7/131 52/2/131 50/1/131
f 51/7/132 55/11/132 56/10/132
f 55/11/133 53/5/133 54/3/133
f 53/5/134 49/4/134 50/12/134
f 51/8/135 49/9/135 53/5/135
f 56/10/136 54/3/136 50/14/136
f 59/7/137 60/2/137 58/1/137
f 59/7/138 63/11/138 64/10/138
f 63/11/139 61/5/139 62/3/139
f 57/4/140 58/12/140 62/3/140
f 57/9/141 61/5/141 63/11/141
f 64/10/142 62/3/142 58/14/142
f 67/7/143 68/2/143 66/1/143
f 67/7/144 71/11/144 72/10/144
f 69/5/21 70/3/21 72/10/21
f 65/4/35 66/12/35 70/3/35
f 67/8/145 65/9/145 69/5/145
f 70/3/146 66/14/146 68/13/146
f 75/7/147 76/2/147 74/1/147
f 79/11/148 80/10/148 76/2/148
f 77/5/149 78/3/149 80/10/149
f 77/5/150 73/4/150 74/12/150
f 75/8/151 73/9/151 77/5/151
f 78/3/152 74/14/152 76/13/152
f 81/6/153 83/7/153 84/2/153
f 87/11/154 88/10/154 84/2/154
f 87/11/155 85/5/155 86/3/155
f 81/4/156 82/12/156 86/3/156
f 81/9/157 85/5/157 87/11/157
f 88/10/158 86/3/158 82/14/158
f 91/7/159 92/2/159 90/1/159
f 91/7/160 95/11/160 96/10/160
f 95/11/161 93/5/161 94/3/161
f 93/5/162 89/4/162 90/12/162
f 91/8/163 89/9/163 93/5/163
f 94/3/164 90/14/164 92/13/164
f 99/7/165 100/2/165 98/1/165
f 99/7/166 103/11/166 104/10/166
f 101/5/167 102/3/167 104/10/167
f 97/4/168 98/12/168 102/3/168
f 99/8/169 97/9/169 101/5/169
f 102/3/170 98/14/170 100/13/170
f 105/6/171 107/7/171 108/2/171
f 111/11/172 112/10/172 108/2/172
f 111/11/173 109/5/173 110/3/173
f 105/4/174 106/12/174 110/3/174
f 105/9/175 109/5/175 111/11/175
f 112/10/176 110/3/176 106/14/176
f 115/7/177 116/2/177 114/1/177
f 119/11/178 120/10/178 116/2/178
f 117/5/179 118/3/179 120/10/179
f 117/5/180 113/4/180 114/12/180
f 115/8/181 113/9/181 117/5/181
f 120/10/182 118/3/182 114/14/182
